<svg xmlns="http://www.w3.org/2000/svg" version="1.0" width="1280.000000pt" height="640.000000pt" viewBox="0 0 1280.000000 640.000000" preserveAspectRatio="xMidYMid meet">
<g transform="translate(0.000000,640.000000) scale(0.100000,-0.100000)" fill="#ff0000" stroke="none">
<path d="M7378 5863 c7 -3 16 -2 19 1 4 3 -2 6 -13 5 -11 0 -14 -3 -6 -6z" fill="#ff0000"/>
<path d="M7308 5853 c7 -3 16 -2 19 1 4 3 -2 6 -13 5 -11 0 -14 -3 -6 -6z" fill="#ff0000"/>
<path d="M7248 5843 c6 -2 18 -2 25 0 6 3 1 5 -13 5 -14 0 -19 -2 -12 -5z" fill="#ff0000"/>
<path d="M7178 5833 c6 -2 18 -2 25 0 6 3 1 5 -13 5 -14 0 -19 -2 -12 -5z" fill="#ff0000"/>
<path d="M7113 5823 c9 -2 25 -2 35 0 9 3 1 5 -18 5 -19 0 -27 -2 -17 -5z" fill="#ff0000"/>
<path d="M7053 5813 c9 -2 23 -2 30 0 6 3 -1 5 -18 5 -16 0 -22 -2 -12 -5z" fill="#ff0000"/>
<path d="M6900 5794 c-41 -7 -133 -18 -205 -23 -145 -12 -256 -35 -285 -60 -11 -9 -25 -34 -32 -55 l-13 -40 -167 -48 c-594 -170 -1278 -490 -2573 -1203 -628 -346 -597 -331 -710 -359 -116 -29 -330 -58 -419 -56 -33 0 -155 -6 -271 -14 -205 -14 -213 -16 -340 -59 -422 -144 -728 -305 -917 -486 -111 -105 -149 -157 -218 -295 l-55 -110 -70 -26 c-199 -75 -315 -171 -315 -261 0 -32 6 -43 35 -66 l35 -28 0 -107 0 -108 -77 0 c-94 0 -143 -20 -195 -78 -47 -52 -72 -101 -94 -184 -17 -63 -17 -68 1 -123 35 -114 90 -147 264 -160 64 -5 91 -11 91 -20 0 -7 -41 -57 -91 -112 -121 -131 -144 -174 -144 -278 0 -90 13 -123 70 -178 51 -49 87 -62 320 -111 329 -69 448 -78 548 -39 41 17 45 27 49 113 l3 55 115 0 115 0 11 -80 c64 -440 363 -777 792 -892 86 -24 116 -27 262 -27 147 0 176 3 265 27 420 112 730 463 790 892 4 28 12 53 18 57 19 12 102 9 115 -4 8 -8 12 -48 12 -112 0 -56 4 -106 8 -113 5 -8 658 -12 2617 -16 1555 -3 2754 -9 2965 -16 195 -6 460 -12 588 -13 l233 -3 3 97 c1 54 5 100 8 103 8 8 110 23 123 18 7 -2 17 -34 25 -71 38 -197 134 -375 283 -529 382 -393 995 -431 1423 -89 274 219 418 551 397 910 -3 54 -2 96 3 96 5 0 38 5 74 11 79 12 90 3 90 -80 0 -71 9 -85 47 -77 45 10 90 42 118 84 24 36 25 48 40 307 9 149 18 289 21 313 5 41 6 42 44 42 35 0 40 3 46 27 3 16 10 44 15 63 14 57 10 170 -11 295 -28 169 -57 218 -135 235 -28 5 -30 9 -39 70 -8 61 -13 71 -86 162 -94 116 -96 119 -105 188 -16 120 -90 337 -206 602 -28 64 -40 158 -20 158 5 0 19 -25 31 -55 18 -45 20 -58 10 -70 -7 -9 -10 -19 -6 -22 9 -9 26 16 25 37 0 8 -23 80 -52 160 -48 133 -54 145 -78 148 -23 3 -31 16 -74 125 -115 289 -246 509 -435 727 -56 64 -57 67 -69 153 -15 112 -53 258 -75 292 -32 49 -81 62 -508 129 -945 151 -1662 234 -2230 258 -215 9 -376 9 -720 0 -544 -15 -868 -39 -1173 -88 -49 -7 -103 -14 -119 -14 -25 0 -27 2 -16 15 35 42 74 57 203 80 72 12 119 23 102 23 -16 0 -64 -6 -105 -14z m2170 -375 c63 -5 194 -21 290 -35 588 -83 1085 -218 1180 -319 23 -25 25 -34 25 -123 0 -123 -29 -216 -98 -320 -50 -74 -139 -157 -205 -191 -94 -48 -415 -132 -704 -185 -303 -56 -439 -70 -688 -70 -268 -1 -327 9 -386 68 -32 32 -32 32 -39 168 -14 253 -9 624 8 734 21 135 55 232 88 256 50 37 235 43 529 17z m-1228 -9 c45 -13 78 -52 78 -94 -1 -35 -244 -1323 -251 -1331 -5 -4 -2299 -235 -2340 -235 -13 0 -19 7 -19 24 0 13 -63 121 -146 250 -156 241 -168 252 -209 206 -34 -38 -22 -76 85 -269 60 -109 98 -187 92 -193 -4 -4 -80 -7 -168 -6 l-159 3 -30 58 -30 57 19 33 c44 74 51 95 54 166 5 91 -9 141 -53 190 -36 39 -80 63 -152 81 -26 7 -43 17 -43 25 0 8 69 84 153 168 172 173 258 236 477 346 490 247 1240 450 1890 510 63 6 131 13 150 14 89 9 568 6 602 -3z" fill="#ff0000"/>
<path d="M2923 4219 c-33 -10 -54 -29 -31 -29 7 0 31 9 53 19 42 21 31 25 -22 10z" fill="#ff0000"/>
<path d="M2617 4064 c-59 -36 -107 -70 -107 -75 0 -14 1 -13 117 57 118 71 135 84 112 84 -8 0 -63 -30 -122 -66z" fill="#ff0000"/>
</g>
</svg>