<svg xmlns="http://www.w3.org/2000/svg" version="1.1" xmlns:xlink="http://www.w3.org/1999/xlink" xmlns:svgjs="http://svgjs.dev/svgjs" width="2000" height="1247" viewBox="0 0 2000 1247"><g transform="matrix(1,0,0,1,-1.2121212121212466,0.504858299595071)"><svg viewBox="0 0 396 247" data-background-color="#ffffff" preserveAspectRatio="xMidYMid meet" height="1247" width="2000" xmlns="http://www.w3.org/2000/svg" xmlns:xlink="http://www.w3.org/1999/xlink"><g id="tight-bounds" transform="matrix(1,0,0,1,0.2400000000000091,-0.09999999999999432)"><svg viewBox="0 0 395.52 247.2" height="247.2" width="395.52"><g><svg></svg></g><g><svg viewBox="0 0 395.52 247.2" height="247.2" width="395.52"><g><path d="M55.039 247.2l30.519-52.86 3.16 0-28.853 49.973h275.79l-28.853-49.973 3.16 0 30.519 52.86zM197.76 0l30.519 52.86-3.16 0-27.359-47.387-27.359 47.387-3.16 0z" fill="#ee3e38" fill-rule="nonzero" stroke="none" stroke-width="1" stroke-linecap="butt" stroke-linejoin="miter" stroke-miterlimit="10" stroke-dasharray="" stroke-dashoffset="0" font-family="none" font-weight="none" font-size="none" text-anchor="none" style="mix-blend-mode: normal" data-fill-palette-color="tertiary"></path></g><g transform="matrix(1,0,0,1,0,73.07161243925925)"><svg viewBox="0 0 395.52 101.05677512148148" height="101.05677512148148" width="395.52"><g><svg viewBox="0 0 437.55238548672753 111.7962" height="101.05677512148148" width="395.52"><g><rect width="4.624004234227501" height="111.7962" x="168.21615812625" y="0" fill="#ee3e38" opacity="1" stroke-width="0" stroke="transparent" fill-opacity="1" class="rect-qz-0" data-fill-palette-color="primary" rx="1%" id="qz-0" data-palette-color="#ee3e38"></rect></g><g transform="matrix(1,0,0,1,184.94488548672751,0.2780999999999949)"><svg viewBox="0 0 252.6075 111.24000000000001" height="111.24000000000001" width="252.6075"><g id="textblocktransform"><svg viewBox="0 0 252.6075 111.24000000000001" height="111.24000000000001" width="252.6075" id="textblock"><g><svg viewBox="0 0 252.6075 111.24000000000001" height="111.24000000000001" width="252.6075"><g transform="matrix(1,0,0,1,0,0)"><svg width="252.6075" viewBox="2.4999999999999982 -33.1 174.79999999999998 72.1" height="111.24000000000001" data-palette-color="#ee3e38"><svg></svg><svg></svg><g class="wordmark-text-0" data-fill-palette-color="primary" id="text-0"><path d="M17.9 0.6v0c-2.033 0-3.973-0.343-5.82-1.03-1.853-0.68-3.487-1.713-4.9-3.1-1.42-1.38-2.553-3.11-3.4-5.19-0.853-2.087-1.28-4.513-1.28-7.28v0c0-2.733 0.417-5.16 1.25-7.28 0.833-2.113 1.967-3.897 3.4-5.35 1.433-1.447 3.117-2.553 5.05-3.32 1.933-0.767 4-1.15 6.2-1.15v0c2.1 0 4 0.423 5.7 1.27 1.7 0.853 3.133 1.83 4.3 2.93v0l-4.7 5.3c-0.767-0.667-1.567-1.183-2.4-1.55-0.833-0.367-1.8-0.55-2.9-0.55v0c-1 0-1.933 0.217-2.8 0.65-0.867 0.433-1.617 1.05-2.25 1.85-0.633 0.8-1.133 1.783-1.5 2.95-0.367 1.167-0.55 2.483-0.55 3.95v0c0 3.067 0.7 5.417 2.1 7.05 1.4 1.633 3.2 2.45 5.4 2.45v0c1.067 0 2.043-0.243 2.93-0.73 0.88-0.48 1.67-1.103 2.37-1.87v0l4.7 5.2c-1.367 1.6-2.973 2.8-4.82 3.6-1.853 0.8-3.88 1.2-6.08 1.2zM40.8 0.6v0c-1.3 0-2.45-0.21-3.45-0.63-1-0.413-1.85-0.97-2.55-1.67-0.7-0.7-1.223-1.517-1.57-2.45-0.353-0.933-0.53-1.917-0.53-2.95v0c0-1.4 0.293-2.633 0.88-3.7 0.58-1.067 1.497-1.977 2.75-2.73 1.247-0.747 2.87-1.337 4.87-1.77 2-0.433 4.433-0.733 7.3-0.9v0c-0.167-0.9-0.657-1.56-1.47-1.98-0.82-0.413-1.93-0.62-3.33-0.62v0c-1.067 0-2.16 0.173-3.28 0.52-1.113 0.353-2.42 0.88-3.92 1.58v0l-3-5.6c1.9-1.067 3.833-1.883 5.8-2.45 1.967-0.567 4-0.85 6.1-0.85v0c1.767 0 3.377 0.223 4.83 0.67 1.447 0.453 2.677 1.153 3.69 2.1 1.02 0.953 1.807 2.17 2.36 3.65 0.547 1.487 0.82 3.247 0.82 5.28v0 13.9h-7l-0.6-2.6h-0.2c-1.233 0.9-2.567 1.657-4 2.27-1.433 0.62-2.933 0.93-4.5 0.93zM43.6-6v0c1 0 1.9-0.193 2.7-0.58 0.8-0.38 1.533-0.82 2.2-1.32v0-3.2c-1.533 0.067-2.79 0.19-3.77 0.37-0.987 0.187-1.763 0.43-2.33 0.73-0.567 0.3-0.957 0.633-1.17 1-0.22 0.367-0.33 0.767-0.33 1.2v0c0 1.2 0.9 1.8 2.7 1.8zM73.8 0h-8.6v-25h7.05l0.65 5.3h0.2c1.2-2.067 2.65-3.567 4.35-4.5 1.7-0.933 3.5-1.4 5.4-1.4v0c1.167 0 2.077 0.09 2.73 0.27 0.647 0.187 1.32 0.43 2.02 0.73v0l-1.7 7.2c-0.767-0.233-1.457-0.41-2.07-0.53-0.62-0.113-1.38-0.17-2.28-0.17v0c-1.433 0-2.85 0.427-4.25 1.28-1.4 0.847-2.567 2.32-3.5 4.42v0z" fill="#ee3e38" fill-rule="nonzero" stroke="none" stroke-width="1" stroke-linecap="butt" stroke-linejoin="miter" stroke-miterlimit="10" stroke-dasharray="" stroke-dashoffset="0" font-family="none" font-weight="none" font-size="none" text-anchor="none" style="mix-blend-mode: normal" data-fill-palette-color="primary" opacity="1"></path><path transform="translate(0,38.4)" d="M11.5 0h-8.6v-32.5h12.1c1.733 0 3.393 0.167 4.98 0.5 1.58 0.333 2.963 0.9 4.15 1.7 1.18 0.8 2.12 1.873 2.82 3.22 0.7 1.353 1.05 3.047 1.05 5.08v0c0 2.333-0.473 4.267-1.42 5.8-0.953 1.533-2.23 2.733-3.83 3.6v0l7.05 12.6h-9.6l-5.6-10.9h-3.1zM11.5-25.7v8h2.9c3.467 0 5.2-1.433 5.2-4.3v0c0-1.4-0.44-2.367-1.32-2.9-0.887-0.533-2.18-0.8-3.88-0.8v0zM46.5 0.6v0c-1.967 0-3.807-0.293-5.52-0.88-1.72-0.58-3.207-1.43-4.46-2.55-1.247-1.113-2.227-2.487-2.94-4.12-0.72-1.633-1.08-3.483-1.08-5.55v0c0-2.033 0.367-3.867 1.1-5.5 0.733-1.633 1.707-3.01 2.92-4.13 1.22-1.113 2.623-1.97 4.21-2.57 1.58-0.6 3.203-0.9 4.87-0.9v0c1.967 0 3.693 0.317 5.18 0.95 1.48 0.633 2.72 1.5 3.72 2.6 1 1.1 1.75 2.383 2.25 3.85 0.5 1.467 0.75 3.033 0.75 4.7v0c0 0.767-0.04 1.483-0.12 2.15-0.087 0.667-0.163 1.15-0.23 1.45v0h-16.05c0.367 1.4 1.1 2.417 2.2 3.05 1.1 0.633 2.567 0.95 4.4 0.95v0c1 0 1.977-0.127 2.93-0.38 0.947-0.247 1.97-0.62 3.07-1.12v0l2.8 5.1c-1.5 0.967-3.15 1.69-4.95 2.17-1.8 0.487-3.483 0.73-5.05 0.73zM45.9-19.1v0c-2.467 0-4.05 1.2-4.75 3.6v0h8.75c-0.367-2.4-1.7-3.6-4-3.6zM71.8 0h-8.6v-25h7l0.6 3h0.2c1-0.967 2.183-1.81 3.55-2.53 1.367-0.713 2.967-1.07 4.8-1.07v0c2.767 0 4.783 0.923 6.05 2.77 1.267 1.853 1.9 4.33 1.9 7.43v0 15.4h-8.6v-14.3c0-1.4-0.207-2.417-0.62-3.05-0.42-0.633-1.18-0.95-2.28-0.95v0c-0.8 0-1.5 0.167-2.1 0.5-0.6 0.333-1.233 0.8-1.9 1.4v0zM109.3 0.6v0c-2.067 0-3.807-0.267-5.22-0.8-1.42-0.533-2.57-1.293-3.45-2.28-0.887-0.98-1.53-2.163-1.93-3.55-0.4-1.38-0.6-2.903-0.6-4.57v0-7.7h-6v-6.4l6.4-0.3 1.1-7.5h7.1v7.5h9.9v6.7h-9.9v7.55c0 1.8 0.407 3.023 1.22 3.67 0.82 0.653 2.03 0.98 3.63 0.98v0c0.867 0 1.673-0.077 2.42-0.23 0.753-0.147 1.463-0.337 2.13-0.57v0l1.5 6.2c-1.1 0.3-2.333 0.593-3.7 0.88-1.367 0.28-2.9 0.42-4.6 0.42zM130.8 0.6v0c-1.3 0-2.45-0.21-3.45-0.63-1-0.413-1.85-0.97-2.55-1.67-0.7-0.7-1.227-1.517-1.58-2.45-0.347-0.933-0.52-1.917-0.52-2.95v0c0-1.4 0.293-2.633 0.88-3.7 0.58-1.067 1.497-1.977 2.75-2.73 1.247-0.747 2.87-1.337 4.87-1.77 2-0.433 4.433-0.733 7.3-0.9v0c-0.167-0.9-0.657-1.56-1.47-1.98-0.82-0.413-1.93-0.62-3.33-0.62v0c-1.067 0-2.157 0.173-3.27 0.52-1.12 0.353-2.43 0.88-3.93 1.58v0l-3-5.6c1.9-1.067 3.833-1.883 5.8-2.45 1.967-0.567 4-0.85 6.1-0.85v0c1.767 0 3.373 0.223 4.82 0.67 1.453 0.453 2.69 1.153 3.71 2.1 1.013 0.953 1.797 2.17 2.35 3.65 0.547 1.487 0.82 3.247 0.82 5.28v0 13.9h-7l-0.6-2.6h-0.2c-1.233 0.9-2.567 1.657-4 2.27-1.433 0.62-2.933 0.93-4.5 0.93zM133.6-6v0c1 0 1.9-0.193 2.7-0.58 0.8-0.38 1.533-0.82 2.2-1.32v0-3.2c-1.533 0.067-2.793 0.19-3.78 0.37-0.98 0.187-1.753 0.43-2.32 0.73-0.567 0.3-0.96 0.633-1.18 1-0.213 0.367-0.32 0.767-0.32 1.2v0c0 1.2 0.9 1.8 2.7 1.8zM169.55 0.6v0c-1.667 0-3.123-0.267-4.37-0.8-1.253-0.533-2.303-1.277-3.15-2.23-0.853-0.947-1.487-2.087-1.9-3.42-0.42-1.333-0.63-2.817-0.63-4.45v0-17.8h-7.5v-6.7h16.1v24.8c0 0.733 0.117 1.333 0.35 1.8 0.233 0.467 0.523 0.84 0.87 1.12 0.353 0.287 0.757 0.487 1.21 0.6 0.447 0.12 0.887 0.18 1.32 0.18v0c1.033 0 2.233-0.233 3.6-0.7v0l1.85 6.3c-0.667 0.2-1.29 0.383-1.87 0.55-0.587 0.167-1.18 0.3-1.78 0.4-0.6 0.1-1.233 0.183-1.9 0.25-0.667 0.067-1.4 0.1-2.2 0.1z" fill="#ee3e38" fill-rule="nonzero" stroke="none" stroke-width="1" stroke-linecap="butt" stroke-linejoin="miter" stroke-miterlimit="10" stroke-dasharray="" stroke-dashoffset="0" font-family="none" font-weight="none" font-size="none" text-anchor="none" style="mix-blend-mode: normal" data-fill-palette-color="primary" opacity="1"></path></g></svg></g></svg></g></svg></g></svg></g><g transform="matrix(1,0,0,1,0,32.66224479079199)"><svg viewBox="0 0 156.111435 46.471710418416016" height="46.471710418416016" width="156.111435"><g><svg xmlns="http://www.w3.org/2000/svg" xmlns:xlink="http://www.w3.org/1999/xlink" version="1.1" x="0" y="0" viewBox="3.9966515775034326 44.99881450130967 90.70451199126346 27.001185498690333" enable-background="new 0 0 100 100" xml:space="preserve" height="46.471710418416016" width="156.111435" class="icon-icon-0" data-fill-palette-color="accent" id="icon-0"><path d="M94.544 60.943L93 59.69v-5.637c-32-13.15-49.809-8.102-49.809-8.102-3.757 1.252-13.476 6.928-13.476 6.928-13.777 0.626-21.297 3.21-21.297 3.21-3.758 1.252-4.387 9.947-4.387 9.947C3.405 67.289 11.543 68 11.543 68h1.467c-0.534-1-0.841-1.973-0.841-3.215 0-4.15 3.365-7.4 7.515-7.4s7.515 3.192 7.515 7.343C27.2 65.97 26.893 67 26.359 68h42.725c-0.354 0-0.552-1.592-0.552-2.59 0-4.15 3.365-7.399 7.515-7.399 4.15 0 7.516 3.192 7.516 7.343 0 0.998-0.199 2.646-0.552 2.646h0.552l9.875-1.336C95.316 63.531 94.544 60.943 94.544 60.943zM9.665 60H6.533l0.626-2.141 4.384-0.441L9.665 60zM62.651 47.146l2.382 5.16-14.375 0.221 0.292-5.687C54.419 46.518 58.335 46.54 62.651 47.146zM48.899 47.083l-1.307 5.492-14.756 0.227C32.836 52.802 38.658 48.498 48.899 47.083zM73.543 52.176l-6.008 0.092-2.113-4.651c3.519 0.677 7.273 1.733 11.252 3.307L73.543 52.176z" fill="#8d021f" data-fill-palette-color="accent"></path><path d="M19.5 58c-3.59 0-6.5 2.91-6.5 6.5s2.91 6.5 6.5 6.5 6.5-2.91 6.5-6.5S23.09 58 19.5 58zM19.5 69c-2.485 0-4.5-2.015-4.5-4.5s2.015-4.5 4.5-4.5 4.5 2.015 4.5 4.5S21.985 69 19.5 69z" fill="#8d021f" data-fill-palette-color="accent"></path><path d="M76.5 59c-3.59 0-6.5 2.91-6.5 6.5s2.91 6.5 6.5 6.5 6.5-2.91 6.5-6.5S80.09 59 76.5 59zM76.5 70c-2.485 0-4.5-2.015-4.5-4.5s2.015-4.5 4.5-4.5 4.5 2.015 4.5 4.5S78.985 70 76.5 70z" fill="#8d021f" data-fill-palette-color="accent"></path></svg></g></svg></g></svg></g></svg></g></svg></g><defs></defs></svg><rect width="395.52" height="247.2" fill="none" stroke="none" visibility="hidden"></rect></g></svg></g></svg>